<svg width="30" height="30" viewBox="0 0 30 30" fill="none" xmlns="http://www.w3.org/2000/svg">
<path d="M23.2759 25.3187H28.9655C29.5367 25.3187 30 24.8554 30 24.2841V5.66345C30 5.09193 29.5367 4.62891 28.9655 4.62891H1.03455C0.463028 4.62891 0 5.09216 0 5.66345V24.2841C0 24.8554 0.463028 25.3185 1.03455 25.3185H23.2759V25.3187Z" fill="#C03A2B"/>
<path d="M20.1984 21.698H30V8.24957H0V21.698H20.1984Z" fill="#F0C419"/>
<path d="M7.24219 13.9394H9.31105V16.0082H7.24219V13.9394Z" fill="white"/>
<path d="M5.17188 13.9394H7.24074V16.0082H5.17188V13.9394Z" fill="#D75E72"/>
<path d="M9.30983 16.0082V17.0428C9.31029 17.4545 9.14687 17.8494 8.85596 18.1405C8.56482 18.4316 8.16977 18.5951 7.75801 18.5944H6.72369C6.31194 18.5948 5.91689 18.4316 5.62575 18.1405C5.33461 17.8494 5.17142 17.4543 5.17188 17.0428V16.0082H9.30983Z" fill="#F0C419"/>
<path d="M9.31128 16.0082V17.0428C9.31128 17.8997 8.96384 18.5944 8.53537 18.5944H7.24219V16.0082H9.31128Z" fill="#D75E72"/>
<path d="M7.24239 12.9048V13.9394H5.17352C4.88811 13.9384 4.65717 13.7073 4.65625 13.4221V12.9048C4.65785 12.3342 5.11996 11.8719 5.69057 11.8703H6.20784C6.77867 11.8716 7.24101 12.334 7.24239 12.9048Z" fill="#F0C419"/>
<path d="M9.82832 12.9048V13.4221C9.82764 13.7073 9.59647 13.9384 9.31105 13.9394H7.24219V12.9048C7.24356 12.334 7.7059 11.8716 8.27673 11.8703H8.79401C9.36461 11.8719 9.82672 12.3342 9.82832 12.9048Z" fill="#F0C419"/>
<path d="M3.62213 19.1116H2.58759C2.30194 19.1116 2.07031 18.8802 2.07031 18.5944C2.07031 18.3087 2.30194 18.0771 2.58759 18.0771V13.9391C2.58759 13.6535 2.81921 13.4219 3.10486 13.4219C3.39073 13.4219 3.62213 13.6535 3.62213 13.9391V18.0771C3.90778 18.0771 4.1394 18.3087 4.1394 18.5944C4.1394 18.8802 3.90778 19.1116 3.62213 19.1116Z" fill="white"/>
<path d="M11.8956 19.1116H10.861C10.5754 19.1116 10.3438 18.8802 10.3438 18.5944C10.3438 18.3087 10.5754 18.0771 10.861 18.0771V13.9391C10.861 13.6535 11.0927 13.4219 11.3783 13.4219C11.6639 13.4219 11.8956 13.6535 11.8956 13.9391V18.0771C12.1812 18.0771 12.4128 18.3087 12.4128 18.5944C12.4128 18.8802 12.1812 19.1116 11.8956 19.1116Z" fill="white"/>
<path d="M8.79218 11.353H8.2749C8.09821 11.3548 7.92311 11.3871 7.75763 11.4484V10.8359C7.75763 10.5503 7.526 10.3187 7.24036 10.3187C6.95471 10.3187 6.72308 10.5501 6.72308 10.8359V11.4484C6.55737 11.3871 6.38251 11.3548 6.20581 11.353H5.68854C4.83183 11.3539 4.13763 12.0481 4.13672 12.9048V13.4221C4.13786 13.7899 4.33516 14.1293 4.65399 14.3127V17.0428C4.65537 18.1849 5.58096 19.1105 6.72308 19.1116H7.7574C8.89952 19.1105 9.82512 18.1849 9.82649 17.0428V14.3127C10.1453 14.1293 10.3424 13.7899 10.3438 13.4221V12.9048C10.3428 12.0481 9.64865 11.3539 8.79218 11.353ZM8.2749 12.3875H8.79218C9.07759 12.3878 9.30899 12.6192 9.30945 12.9048V13.4221H7.75763V12.9048C7.75786 12.6192 7.98926 12.3878 8.2749 12.3875ZM8.79218 15.4909H7.75763V14.4566H8.79218V15.4909ZM6.72308 15.4909H5.68854V14.4566H6.72308V15.4909ZM5.17149 12.9048C5.17172 12.6192 5.40312 12.3878 5.68877 12.3875H6.20604C6.49146 12.3878 6.72285 12.6192 6.72331 12.9048V13.4221H5.17149V12.9048ZM5.68854 17.0428V16.5255H6.72308V18.0771C6.15202 18.0766 5.68922 17.6138 5.68854 17.0428ZM7.75763 18.0773V16.5255H8.79218V17.0428C8.79149 17.6138 8.32869 18.0766 7.75763 18.0773Z" fill="#C03A2B"/>
</svg>
