<svg width="1024" height="1024" viewBox="0 0 1024 1024" fill="none" xmlns="http://www.w3.org/2000/svg">
<path d="M0 169.536C0 75.904 75.904 0 169.536 0H854.464C948.096 0 1024 75.904 1024 169.536V854.464C1024 948.096 948.096 1024 854.464 1024H169.536C75.904 1024 0 948.096 0 854.464V169.536Z" fill="#EAEAEA"/>
<path d="M76.8 512C76.8 271.645 271.646 76.7998 512 76.7998C752.354 76.7998 947.2 271.645 947.2 512C947.2 752.354 752.354 947.2 512 947.2C271.646 947.2 76.8 752.354 76.8 512Z" fill="white"/>
<path d="M494.142 186.932L249.211 400.152H329.492L504.177 249.077C516.088 240.144 527.75 245.355 532.093 249.077L724.914 394.24C735.336 398.707 736.701 408.508 736.08 412.851C735.46 505.284 736.08 697.258 736.08 697.258H443V748.059H788.92V394.24C790.409 383.818 770.82 363.733 765.857 360.011C760.894 356.289 547.354 195.866 533.954 186.932C520.554 177.999 498.484 183.21 494.142 186.932Z" stroke="black" stroke-width="15"/>
<path d="M365.756 524.695L735.913 533.223L735.913 588.297L365.756 581.461L353.864 644.584L238.356 644.584C217.893 581.461 229.061 484.724 238.355 450.77L359.145 450.773L365.756 524.695Z" stroke="black" stroke-width="15"/>
<mask id="path-5-inside-1" fill="white">
<rect x="228.153" y="421.209" width="140.016" height="29.1699" rx="5"/>
</mask>
<rect x="228.153" y="421.209" width="140.016" height="29.1699" rx="5" stroke="black" stroke-width="29.1699" mask="url(#path-5-inside-1)"/>
<mask id="path-6-inside-2" fill="white">
<rect x="228.153" y="642.931" width="140.016" height="29.1699" rx="5"/>
</mask>
<rect x="228.153" y="642.931" width="140.016" height="29.1699" rx="5" stroke="black" stroke-width="29.1699" mask="url(#path-6-inside-2)"/>
<path d="M394.424 744.992H204.819V722.239H227.572V707.071H371.671V722.239H394.424V744.992Z" stroke="black" stroke-width="15"/>
</svg>
