<?xml version="1.0" encoding="iso-8859-1"?>
<!-- Generator: Adobe Illustrator 19.0.0, SVG Export Plug-In . SVG Version: 6.00 Build 0)  -->
<svg version="1.1" id="Layer_1" xmlns="http://www.w3.org/2000/svg" xmlns:xlink="http://www.w3.org/1999/xlink" x="0px" y="0px"
	 viewBox="0 0 512 512" style="enable-background:new 0 0 512 512;" xml:space="preserve">
<g>
	<g>
		<path d="M316.02,187.316H195.971c-4.742,0-8.575,3.842-8.575,8.575V315.94c0,4.733,3.833,8.575,8.575,8.575H316.02
			c4.742,0,8.575-3.842,8.575-8.575V195.891C324.595,191.158,320.762,187.316,316.02,187.316z"/>
	</g>
</g>
<g>
	<g>
		<path d="M341.882,102.098L262.701,3.135c-3.267-4.073-10.136-4.073-13.403,0l-79.172,98.963c-2.058,2.572-2.452,6.097-1.029,9.072
			c1.432,2.975,4.433,4.862,7.726,4.862h40.911v40.911c0,4.733,3.833,8.575,8.575,8.575h59.39c4.742,0,8.575-3.842,8.575-8.575
			v-40.911h40.911c3.301,0,6.294-1.886,7.726-4.862C344.335,108.204,343.94,104.671,341.882,102.098z"/>
	</g>
</g>
<g>
	<g>
		<path d="M157.033,217.654h-40.911v-40.911c0-3.293-1.895-6.303-4.853-7.726c-2.984-1.423-6.508-1.029-9.081,1.038L3.216,249.218
			C1.183,250.848,0,253.309,0,255.915c0,2.607,1.183,5.068,3.216,6.697l98.972,79.172c1.552,1.243,3.447,1.878,5.359,1.878
			c1.26,0,2.538-0.283,3.721-0.849c2.967-1.432,4.853-4.433,4.853-7.726v-40.911h40.911c4.742,0,8.575-3.842,8.575-8.575V226.22
			C165.607,221.487,161.766,217.654,157.033,217.654z"/>
	</g>
</g>
<g>
	<g>
		<path d="M342.885,400.66c-1.415-2.975-4.408-4.862-7.709-4.862h-40.911v-40.911c0-4.733-3.833-8.575-8.575-8.575h-59.39
			c-4.742,0-8.575,3.842-8.575,8.575v40.911h-40.911c-3.301,0-6.294,1.887-7.726,4.862c-1.423,2.967-1.029,6.5,1.029,9.072
			l79.172,98.972c1.629,2.032,4.099,3.216,6.697,3.216c2.598,0,5.068-1.183,6.697-3.216l79.172-98.972
			C343.914,407.16,344.309,403.636,342.885,400.66z"/>
	</g>
</g>
<g>
	<g>
		<path d="M508.784,249.218l-98.972-79.172c-2.581-2.067-6.122-2.461-9.081-1.038c-2.967,1.432-4.853,4.433-4.853,7.726v40.911
			h-40.911c-4.742,0-8.575,3.842-8.575,8.575v59.381c0,4.733,3.833,8.575,8.575,8.575h40.911v40.911
			c0,3.293,1.895,6.303,4.853,7.726c1.192,0.566,2.452,0.849,3.721,0.849c1.912,0,3.807-0.643,5.359-1.878l98.972-79.172
			c2.032-1.621,3.216-4.09,3.216-6.697C512,253.309,510.817,250.848,508.784,249.218z"/>
	</g>
</g>
<g>
</g>
<g>
</g>
<g>
</g>
<g>
</g>
<g>
</g>
<g>
</g>
<g>
</g>
<g>
</g>
<g>
</g>
<g>
</g>
<g>
</g>
<g>
</g>
<g>
</g>
<g>
</g>
<g>
</g>
</svg>
